<svg xmlns="http://www.w3.org/2000/svg" width="58.957" height="64.079" viewBox="0 0 58.957 64.079">
  <g id="campana" transform="translate(0 0)">
    <path id="Trazado_825133" data-name="Trazado 825133" d="M92.38,84.246h-47.8A4.094,4.094,0,0,0,48.714,81.2c3.4-9.172-5.657-35.9,19.768-35.9S84.848,72.029,88.248,81.2a4.1,4.1,0,0,0,4.132,3.045Zm0,0" transform="translate(-39.003 -39.63)" fill="#ffce00"/>
    <path id="Trazado_825134" data-name="Trazado 825134" d="M64.659,361.112a4.628,4.628,0,0,1-4.628,4.628h-47.8a4.628,4.628,0,1,1,0-9.255h47.8a4.627,4.627,0,0,1,4.628,4.627Zm0,0" transform="translate(-6.654 -311.869)" fill="#ddb302"/>
    <path id="Trazado_825135" data-name="Trazado 825135" d="M88.251,81.208H63.408a4.742,4.742,0,0,1-4.737-4.894c.35-11.326-1.456-30.791,9.627-31.006-30.424.157-10.976,38.945-23.713,38.945h47.8a4.1,4.1,0,0,1-4.132-3.045Zm0,0" transform="translate(-39.005 -39.638)" fill="#ddb302"/>
    <path id="Trazado_825136" data-name="Trazado 825136" d="M158.137,361.112a4.628,4.628,0,0,1-4.628,4.628H119.084a4.628,4.628,0,0,1,0-9.255h34.425a4.627,4.627,0,0,1,4.628,4.627Zm0,0" transform="translate(-100.132 -311.869)" fill="#ffce00"/>
    <path id="Trazado_825137" data-name="Trazado 825137" d="M180.094,430.434a9.256,9.256,0,1,1-18.512,0Zm0,0" transform="translate(-141.359 -376.563)" fill="#ddb302"/>
    <path id="Trazado_825138" data-name="Trazado 825138" d="M225.814,453.246a9.277,9.277,0,0,1-6.333,6.067,9.265,9.265,0,0,1-4.721-3.1,1.83,1.83,0,0,1,1.437-2.969Zm0,0" transform="translate(-187.527 -396.52)" fill="#ffce00"/>
    <path id="Trazado_825139" data-name="Trazado 825139" d="M207.269,12.677c.01-.117.014-.235.014-.354a4.718,4.718,0,1,0-9.435,0c0,.119,0,.237.014.354" transform="translate(-173.086 -6.654)" fill="#ffce00"/>
    <path id="Trazado_825140" data-name="Trazado 825140" d="M53.377,43.663h0c-1.843,0-2.883-.957-3.478-3.2-.609-2.289-.629-5.608-.651-9.123-.026-4.258-.055-9.084-1.114-13.4a.952.952,0,0,0-1.849.453c1.006,4.1,1.034,8.806,1.059,12.959.022,3.639.043,7.077.714,9.6a7.646,7.646,0,0,0,1.251,2.706H9.65A7.646,7.646,0,0,0,10.9,40.957c.671-2.524.692-5.961.714-9.6.034-5.556.072-11.854,2.346-16.673C16.52,9.259,21.6,6.621,29.479,6.621c4.329,0,7.872.814,10.529,2.419a12.773,12.773,0,0,1,5.171,6.046.952.952,0,0,0,1.743-.766,14.814,14.814,0,0,0-5.93-6.909A18.061,18.061,0,0,0,35.13,5.232a5.668,5.668,0,0,0-11.3,0A18.233,18.233,0,0,0,18.2,7.271a14.676,14.676,0,0,0-5.96,6.6c-2.452,5.2-2.492,11.72-2.527,17.473-.022,3.515-.042,6.834-.651,9.123-.6,2.238-1.636,3.194-3.478,3.2h0a5.58,5.58,0,0,0,0,11.16H11.6a.952.952,0,1,0,0-1.9H5.579a3.676,3.676,0,0,1,0-7.353h47.8a3.676,3.676,0,0,1,0,7.353H15.41a.952.952,0,0,0,0,1.9h3.907a10.206,10.206,0,0,0,20.323,0H53.377a5.58,5.58,0,0,0,0-11.16ZM29.479,1.9a3.773,3.773,0,0,1,3.693,3.024,32.644,32.644,0,0,0-7.385,0A3.772,3.772,0,0,1,29.479,1.9Zm0,60.273a8.316,8.316,0,0,1-8.248-7.353h16.5a8.315,8.315,0,0,1-8.248,7.353Zm0,0"/>
    <path id="Trazado_825141" data-name="Trazado 825141" d="M354.23,35.259a12.345,12.345,0,0,1,3.379,3.223,18.3,18.3,0,0,1,3.365,11.172.952.952,0,1,0,1.9,0,20.193,20.193,0,0,0-3.807-12.4,13.909,13.909,0,0,0-3.916-3.663.952.952,0,0,0-.923,1.665Zm0,0" transform="translate(-309.471 -29.286)"/>
    <path id="Trazado_825142" data-name="Trazado 825142" d="M411.973,38.268c.153.1,3.751,2.515,3.751,8.59a.952.952,0,0,0,1.9,0c0-7.165-4.439-10.072-4.628-10.193a.952.952,0,0,0-1.026,1.6Zm0,0" transform="translate(-360.033 -31.947)"/>
    <path id="Trazado_825143" data-name="Trazado 825143" d="M45.3,50.6a.952.952,0,0,0,.952-.952A18.3,18.3,0,0,1,49.616,38.48a12.385,12.385,0,0,1,3.378-3.223.952.952,0,0,0-.923-1.665,13.91,13.91,0,0,0-3.916,3.663,20.2,20.2,0,0,0-3.807,12.4A.952.952,0,0,0,45.3,50.6Zm0,0" transform="translate(-38.797 -29.285)"/>
    <path id="Trazado_825144" data-name="Trazado 825144" d="M11.842,47.81a.951.951,0,0,0,.951-.951c0-6.07,3.592-8.486,3.751-8.589a.952.952,0,0,0-1.026-1.6c-.189.12-4.628,3.027-4.628,10.192a.952.952,0,0,0,.952.951Zm0,0" transform="translate(-9.528 -31.947)"/>
  </g>
</svg>
