<svg xmlns="http://www.w3.org/2000/svg" xmlns:xlink="http://www.w3.org/1999/xlink" width="90" height="90" viewBox="0 0 90 90">
  <defs>
    <filter id="Trazado_824488" x="0" y="0" width="90" height="90" filterUnits="userSpaceOnUse">
      <feOffset input="SourceAlpha"/>
      <feGaussianBlur stdDeviation="3" result="blur"/>
      <feFlood flood-color="#fff" flood-opacity="0.659"/>
      <feComposite operator="in" in2="blur"/>
      <feComposite in="SourceGraphic"/>
    </filter>
  </defs>
  <g id="Grupo_1096605" data-name="Grupo 1096605" transform="translate(-410 -1112)">
    <g transform="matrix(1, 0, 0, 1, 410, 1112)" filter="url(#Trazado_824488)">
      <path id="Trazado_824488-2" data-name="Trazado 824488" d="M36,0A36,36,0,1,1,0,36,36,36,0,0,1,36,0Z" transform="translate(9 9)" fill="#3ee2a8"/>
    </g>
    <g id="archivo-pdf_1_" data-name="archivo-pdf (1)" transform="translate(428 1128)">
      <g id="Grupo_1096603" data-name="Grupo 1096603" transform="translate(0.85 0.85)">
        <g id="Grupo_1096601" data-name="Grupo 1096601">
          <path id="Trazado_842680" data-name="Trazado 842680" d="M72.237,54.527H40.992a3.4,3.4,0,0,1-3.4-3.4V10.9a3.4,3.4,0,0,1,3.4-3.4H72.237a3.4,3.4,0,0,1,3.4,3.4v40.23A3.4,3.4,0,0,1,72.237,54.527Z" transform="translate(-34.185 -7.5)" fill="#f7f6f7"/>
          <path id="Trazado_842681" data-name="Trazado 842681" d="M316.8,7.5h-3.4a3.4,3.4,0,0,1,3.4,3.4v40.23a3.4,3.4,0,0,1-3.4,3.4h3.4a3.4,3.4,0,0,0,3.4-3.4V10.9A3.4,3.4,0,0,0,316.8,7.5Z" transform="translate(-278.753 -7.5)" fill="#e2d8ec"/>
          <path id="Trazado_842682" data-name="Trazado 842682" d="M48.961,236.711H10.9a3.4,3.4,0,0,1-3.4-3.4V205.9a3.4,3.4,0,0,1,3.4-3.4H27.476a2.945,2.945,0,0,1,2.857,2.231l.584,2.335a2.945,2.945,0,0,0,2.857,2.231H48.961a3.4,3.4,0,0,1,3.4,3.4v20.617A3.4,3.4,0,0,1,48.961,236.711Z" transform="translate(-7.5 -180.41)" fill="#f7e07f"/>
          <g id="Grupo_1096600" data-name="Grupo 1096600" transform="translate(16.578 22.09)">
            <path id="Trazado_842683" data-name="Trazado 842683" d="M156.7,204.731l.584,2.335a2.945,2.945,0,0,0,2.857,2.231h3.4a2.946,2.946,0,0,1-2.857-2.231l-.584-2.335a2.945,2.945,0,0,0-2.857-2.231h-3.4A2.945,2.945,0,0,1,156.7,204.731Z" transform="translate(-153.842 -202.5)" fill="#f0d16f"/>
            <path id="Trazado_842684" data-name="Trazado 842684" d="M346.9,262.5h-3.4a3.4,3.4,0,0,1,3.4,3.4v20.617a3.4,3.4,0,0,1-3.4,3.4h3.4a3.4,3.4,0,0,0,3.4-3.4V265.9A3.4,3.4,0,0,0,346.9,262.5Z" transform="translate(-322.015 -255.703)" fill="#f0d16f"/>
          </g>
          <path id="Trazado_842685" data-name="Trazado 842685" d="M114.479,57.6H89.115a.566.566,0,0,1-.566-.566V53.066a.566.566,0,0,1,.566-.566h25.364a.566.566,0,0,1,.566.566v3.965A.566.566,0,0,1,114.479,57.6Z" transform="translate(-79.368 -47.402)" fill="#e2dfe3"/>
        </g>
        <g id="Grupo_1096602" data-name="Grupo 1096602" transform="translate(35.064 35.064)">
          <circle id="Elipse_11269" data-name="Elipse 11269" cx="10.618" cy="10.618" r="10.618" transform="translate(0 0)" fill="#bfe69f"/>
          <path id="Trazado_842686" data-name="Trazado 842686" d="M397.466,317.033a10.7,10.7,0,0,0-1.7.136,10.619,10.619,0,0,1,0,20.965,10.619,10.619,0,1,0,1.7-21.1Z" transform="translate(-386.848 -317.033)" fill="#a4d9a6"/>
          <path id="Trazado_842687" data-name="Trazado 842687" d="M372.535,365.367v-6.957a.641.641,0,0,1,.641-.641h2.668a.641.641,0,0,1,.641.641v6.957a.641.641,0,0,0,.641.641h1.466a.549.549,0,0,1,.388.938l-4.017,4.017a.641.641,0,0,1-.906,0l-4.017-4.017a.549.549,0,0,1,.388-.938h1.466A.641.641,0,0,0,372.535,365.367Z" transform="translate(-363.891 -353.155)" fill="#fff"/>
        </g>
      </g>
      <path id="Trazado_842688" data-name="Trazado 842688" d="M36.528,15.293h-26.5a.85.85,0,0,0,0,1.7h26.5a.85.85,0,0,0,0-1.7ZM35.961,5.1H30.34a.85.85,0,0,0,0,1.7h5.338v3.4h-24.8V6.8H26.375a.85.85,0,1,0,0-1.7H10.6A1.418,1.418,0,0,0,9.181,6.514v3.965A1.418,1.418,0,0,0,10.6,11.895H35.961a1.418,1.418,0,0,0,1.416-1.416V6.514A1.417,1.417,0,0,0,35.961,5.1Zm.566,13.594h-26.5a.85.85,0,1,0,0,1.7h26.5a.85.85,0,0,0,0-1.7Zm0,6.8h-9.5a.85.85,0,1,0,0,1.7h9.5a.85.85,0,0,0,0-1.7Zm0-3.4h-9.5a.85.85,0,0,0,0,1.7h9.5a.85.85,0,0,0,0-1.7ZM46.559,35.065v-1.93A4.255,4.255,0,0,0,43.15,28.97V4.248A4.253,4.253,0,0,0,38.9,0H7.657A4.253,4.253,0,0,0,3.409,4.248V22.174A4.255,4.255,0,0,0,0,26.338V38.393a.85.85,0,1,0,1.7,0V26.338a2.552,2.552,0,0,1,2.549-2.549H20.826a2.094,2.094,0,0,1,2.034,1.587l.583,2.336a3.788,3.788,0,0,0,3.681,2.874H42.311a2.552,2.552,0,0,1,2.549,2.549v2.052A11.465,11.465,0,0,0,40.532,56.3H4.248A2.551,2.551,0,0,1,1.7,53.752V42.358a.85.85,0,1,0-1.7,0V53.752A4.253,4.253,0,0,0,4.248,58H42.311a4.194,4.194,0,0,0,1.583-.307,11.468,11.468,0,1,0,2.665-22.629Zm-5.108-6.178H27.124A2.092,2.092,0,0,1,25.091,27.3l-.584-2.337a3.791,3.791,0,0,0-3.682-2.874H5.108V4.248A2.552,2.552,0,0,1,7.657,1.7H38.9a2.552,2.552,0,0,1,2.549,2.549ZM46.532,56.3A9.769,9.769,0,1,1,56.3,46.532,9.78,9.78,0,0,1,46.532,56.3Zm4.082-8.384H49.357V41.169a1.492,1.492,0,0,0-1.49-1.49H45.2a1.492,1.492,0,0,0-1.49,1.49v6.748H42.451a1.4,1.4,0,0,0-.989,2.388l4.017,4.017a1.492,1.492,0,0,0,2.108,0L51.6,50.305a1.4,1.4,0,0,0-.989-2.388Zm-4.082,5.056-3.356-3.356h.741a1.492,1.492,0,0,0,1.49-1.49V41.378h2.25v6.748a1.492,1.492,0,0,0,1.49,1.49h.741ZM32.575,40.552a.85.85,0,0,0,0-1.7H29.52a.85.85,0,0,0-.85.85V47.24a.85.85,0,0,0,1.7,0V44.249h1.963a.85.85,0,1,0,0-1.7H30.369v-2ZM21.446,48.09h0c.063,0,1.551-.006,2.145-.016,2.173-.038,3.75-1.938,3.75-4.518,0-2.712-1.537-4.534-3.825-4.534H21.431a.85.85,0,0,0-.85.851v7.248a.944.944,0,0,0,.865.969Zm2.072-7.369c1.568,0,2.126,1.464,2.126,2.835,0,1.922-1.045,2.8-2.08,2.819-.291.005-.816.009-1.272.012,0-.871-.009-4.759-.011-5.666h1.236ZM14.834,47.24V44.787c.45,0,.973,0,1.265,0a2.993,2.993,0,1,0,0-5.985H13.984a.859.859,0,0,0-.85.85V47.24a.85.85,0,0,0,1.7,0ZM16.1,40.5a1.294,1.294,0,1,1,0,2.587c-.29,0-.806,0-1.255,0,0-.463-.006-2.107-.007-2.591Z"/>
    </g>
  </g>
</svg>
